<mxfile host="65bd71144e">
    <diagram id="Cyxf8pQ4lS2NhNbfNlAc" name="Page-1">
        <mxGraphModel dx="2668" dy="1306" grid="1" gridSize="10" guides="1" tooltips="1" connect="1" arrows="1" fold="1" page="1" pageScale="1" pageWidth="827" pageHeight="1169" math="0" shadow="0">
            <root>
                <mxCell id="0"/>
                <mxCell id="1" parent="0"/>
                <mxCell id="3" value="" style="rounded=0;whiteSpace=wrap;html=1;gradientColor=none;" vertex="1" parent="1">
                    <mxGeometry x="290" y="160" width="200" height="360" as="geometry"/>
                </mxCell>
                <mxCell id="4" value="" style="rounded=1;whiteSpace=wrap;html=1;" vertex="1" parent="1">
                    <mxGeometry x="310" y="170" width="160" height="30" as="geometry"/>
                </mxCell>
                <mxCell id="10" style="edgeStyle=none;html=1;" edge="1" parent="1" source="6" target="4">
                    <mxGeometry relative="1" as="geometry"/>
                </mxCell>
                <mxCell id="6" value="&lt;h1&gt;搜索栏&lt;/h1&gt;&lt;div&gt;输入物品名字&lt;/div&gt;" style="text;html=1;strokeColor=none;fillColor=none;spacing=5;spacingTop=-20;whiteSpace=wrap;overflow=hidden;rounded=0;" vertex="1" parent="1">
                    <mxGeometry x="410" y="80" width="150" height="70" as="geometry"/>
                </mxCell>
                <mxCell id="8" value="" style="rounded=1;whiteSpace=wrap;html=1;" vertex="1" parent="1">
                    <mxGeometry x="290" y="170" width="20" height="30" as="geometry"/>
                </mxCell>
                <mxCell id="9" value="" style="rounded=1;whiteSpace=wrap;html=1;" vertex="1" parent="1">
                    <mxGeometry x="470" y="170" width="20" height="30" as="geometry"/>
                </mxCell>
                <mxCell id="12" style="edgeStyle=none;html=1;" edge="1" parent="1" source="11" target="8">
                    <mxGeometry relative="1" as="geometry"/>
                </mxCell>
                <mxCell id="11" value="&lt;h1&gt;点击下拉&lt;/h1&gt;&lt;div&gt;提供地区选择，距离选择&lt;/div&gt;&lt;div&gt;物品大类，可租用日期，租用价格，租用方式&lt;/div&gt;" style="text;html=1;strokeColor=none;fillColor=none;spacing=5;spacingTop=-20;whiteSpace=wrap;overflow=hidden;rounded=0;" vertex="1" parent="1">
                    <mxGeometry x="60" y="140" width="190" height="120" as="geometry"/>
                </mxCell>
                <mxCell id="14" style="edgeStyle=none;html=1;" edge="1" parent="1" source="13" target="9">
                    <mxGeometry relative="1" as="geometry"/>
                </mxCell>
                <mxCell id="13" value="&lt;h1&gt;点击进入个人主页&lt;/h1&gt;" style="text;html=1;strokeColor=none;fillColor=none;spacing=5;spacingTop=-20;whiteSpace=wrap;overflow=hidden;rounded=0;" vertex="1" parent="1">
                    <mxGeometry x="550" y="107.5" width="180" height="70" as="geometry"/>
                </mxCell>
                <mxCell id="25" value="物品 1" style="rounded=1;whiteSpace=wrap;html=1;gradientColor=none;" vertex="1" parent="1">
                    <mxGeometry x="305" y="220" width="170" height="60" as="geometry"/>
                </mxCell>
                <mxCell id="94" style="edgeStyle=none;html=1;" edge="1" parent="1" source="26">
                    <mxGeometry relative="1" as="geometry">
                        <mxPoint x="850" y="290" as="targetPoint"/>
                    </mxGeometry>
                </mxCell>
                <mxCell id="26" value="物品 2" style="rounded=1;whiteSpace=wrap;html=1;gradientColor=none;" vertex="1" parent="1">
                    <mxGeometry x="305" y="290" width="170" height="60" as="geometry"/>
                </mxCell>
                <mxCell id="28" value="物品 3" style="rounded=1;whiteSpace=wrap;html=1;gradientColor=none;" vertex="1" parent="1">
                    <mxGeometry x="305" y="360" width="170" height="60" as="geometry"/>
                </mxCell>
                <mxCell id="29" value="物品 4..." style="rounded=1;whiteSpace=wrap;html=1;gradientColor=none;" vertex="1" parent="1">
                    <mxGeometry x="305" y="430" width="170" height="60" as="geometry"/>
                </mxCell>
                <mxCell id="31" value="主图" style="rounded=1;whiteSpace=wrap;html=1;gradientColor=none;" vertex="1" parent="1">
                    <mxGeometry x="520" y="340" width="70" height="65" as="geometry"/>
                </mxCell>
                <mxCell id="33" value="" style="rounded=0;whiteSpace=wrap;html=1;gradientColor=none;" vertex="1" parent="1">
                    <mxGeometry x="590" y="340" width="210" height="65" as="geometry"/>
                </mxCell>
                <mxCell id="35" value="描述" style="text;html=1;strokeColor=none;fillColor=none;align=center;verticalAlign=middle;whiteSpace=wrap;rounded=0;" vertex="1" parent="1">
                    <mxGeometry x="580" y="340" width="60" height="30" as="geometry"/>
                </mxCell>
                <mxCell id="36" value="价格" style="text;html=1;strokeColor=none;fillColor=none;align=center;verticalAlign=middle;whiteSpace=wrap;rounded=0;" vertex="1" parent="1">
                    <mxGeometry x="700" y="340" width="60" height="30" as="geometry"/>
                </mxCell>
                <mxCell id="37" value="发布人" style="text;html=1;strokeColor=none;fillColor=none;align=center;verticalAlign=middle;whiteSpace=wrap;rounded=0;" vertex="1" parent="1">
                    <mxGeometry x="590" y="375" width="60" height="30" as="geometry"/>
                </mxCell>
                <mxCell id="38" value="发布日期" style="text;html=1;strokeColor=none;fillColor=none;align=center;verticalAlign=middle;whiteSpace=wrap;rounded=0;" vertex="1" parent="1">
                    <mxGeometry x="650" y="375" width="60" height="30" as="geometry"/>
                </mxCell>
                <mxCell id="39" value="评价,&amp;amp; 评论" style="text;html=1;strokeColor=none;fillColor=none;align=center;verticalAlign=middle;whiteSpace=wrap;rounded=0;" vertex="1" parent="1">
                    <mxGeometry x="715" y="375" width="90" height="30" as="geometry"/>
                </mxCell>
                <mxCell id="40" value="" style="rounded=0;whiteSpace=wrap;html=1;gradientColor=none;" vertex="1" parent="1">
                    <mxGeometry x="890" y="112.5" width="210" height="455" as="geometry"/>
                </mxCell>
                <mxCell id="41" value="" style="rounded=1;whiteSpace=wrap;html=1;" vertex="1" parent="1">
                    <mxGeometry x="900" y="127.5" width="20" height="30" as="geometry"/>
                </mxCell>
                <mxCell id="43" value="返回" style="text;html=1;strokeColor=none;fillColor=none;align=center;verticalAlign=middle;whiteSpace=wrap;rounded=0;" vertex="1" parent="1">
                    <mxGeometry x="830" y="127.5" width="60" height="30" as="geometry"/>
                </mxCell>
                <mxCell id="44" value="title" style="text;html=1;strokeColor=none;fillColor=none;align=center;verticalAlign=middle;whiteSpace=wrap;rounded=0;" vertex="1" parent="1">
                    <mxGeometry x="950" y="127.5" width="60" height="30" as="geometry"/>
                </mxCell>
                <mxCell id="47" value="主页" style="rounded=1;whiteSpace=wrap;html=1;" vertex="1" parent="1">
                    <mxGeometry x="1060" y="127.5" width="20" height="30" as="geometry"/>
                </mxCell>
                <mxCell id="48" value="图片展示" style="rounded=1;whiteSpace=wrap;html=1;gradientColor=none;" vertex="1" parent="1">
                    <mxGeometry x="905" y="177.5" width="175" height="110" as="geometry"/>
                </mxCell>
                <mxCell id="49" value="描述" style="rounded=1;whiteSpace=wrap;html=1;gradientColor=none;" vertex="1" parent="1">
                    <mxGeometry x="906.25" y="297.5" width="173.75" height="72.5" as="geometry"/>
                </mxCell>
                <mxCell id="50" value="留言区" style="rounded=1;whiteSpace=wrap;html=1;gradientColor=none;" vertex="1" parent="1">
                    <mxGeometry x="907.5" y="455" width="173.75" height="55" as="geometry"/>
                </mxCell>
                <mxCell id="96" style="edgeStyle=none;html=1;" edge="1" parent="1" source="51" target="85">
                    <mxGeometry relative="1" as="geometry"/>
                </mxCell>
                <mxCell id="51" value="点击租用" style="rounded=1;whiteSpace=wrap;html=1;gradientColor=none;" vertex="1" parent="1">
                    <mxGeometry x="896.25" y="527.5" width="153.75" height="32.5" as="geometry"/>
                </mxCell>
                <mxCell id="189" style="edgeStyle=none;html=1;entryX=-0.005;entryY=0.523;entryDx=0;entryDy=0;entryPerimeter=0;" edge="1" parent="1" source="52" target="61">
                    <mxGeometry relative="1" as="geometry"/>
                </mxCell>
                <mxCell id="52" value="" style="rounded=0;whiteSpace=wrap;html=1;gradientColor=none;" vertex="1" parent="1">
                    <mxGeometry x="307.5" y="660" width="200" height="360" as="geometry"/>
                </mxCell>
                <mxCell id="53" value="" style="rounded=1;whiteSpace=wrap;html=1;" vertex="1" parent="1">
                    <mxGeometry x="320" y="670" width="20" height="30" as="geometry"/>
                </mxCell>
                <mxCell id="54" value="返回主页" style="text;html=1;strokeColor=none;fillColor=none;align=center;verticalAlign=middle;whiteSpace=wrap;rounded=0;" vertex="1" parent="1">
                    <mxGeometry x="230" y="670" width="60" height="30" as="geometry"/>
                </mxCell>
                <mxCell id="55" value="物品页面" style="text;html=1;strokeColor=none;fillColor=none;align=center;verticalAlign=middle;whiteSpace=wrap;rounded=0;" vertex="1" parent="1">
                    <mxGeometry x="965" y="70" width="60" height="30" as="geometry"/>
                </mxCell>
                <mxCell id="56" value="主页" style="text;html=1;strokeColor=none;fillColor=none;align=center;verticalAlign=middle;whiteSpace=wrap;rounded=0;" vertex="1" parent="1">
                    <mxGeometry x="530" y="450" width="60" height="30" as="geometry"/>
                </mxCell>
                <mxCell id="57" value="" style="ellipse;whiteSpace=wrap;html=1;aspect=fixed;rounded=1;gradientColor=none;" vertex="1" parent="1">
                    <mxGeometry x="365" y="710" width="80" height="80" as="geometry"/>
                </mxCell>
                <mxCell id="60" value="登录界面" style="rounded=1;whiteSpace=wrap;html=1;gradientColor=none;" vertex="1" parent="1">
                    <mxGeometry x="340" y="820" width="140" height="120" as="geometry"/>
                </mxCell>
                <mxCell id="61" value="" style="rounded=0;whiteSpace=wrap;html=1;gradientColor=none;" vertex="1" parent="1">
                    <mxGeometry x="647.5" y="660" width="202.5" height="360" as="geometry"/>
                </mxCell>
                <mxCell id="62" value="" style="rounded=1;whiteSpace=wrap;html=1;" vertex="1" parent="1">
                    <mxGeometry x="660" y="670" width="20" height="30" as="geometry"/>
                </mxCell>
                <mxCell id="63" value="返回主页" style="text;html=1;strokeColor=none;fillColor=none;align=center;verticalAlign=middle;whiteSpace=wrap;rounded=0;" vertex="1" parent="1">
                    <mxGeometry x="570" y="670" width="60" height="30" as="geometry"/>
                </mxCell>
                <mxCell id="64" value="头像" style="ellipse;whiteSpace=wrap;html=1;aspect=fixed;rounded=1;gradientColor=none;" vertex="1" parent="1">
                    <mxGeometry x="660" y="710" width="60" height="60" as="geometry"/>
                </mxCell>
                <mxCell id="110" style="edgeStyle=none;html=1;" edge="1" parent="1" source="65">
                    <mxGeometry relative="1" as="geometry">
                        <mxPoint x="1000" y="710" as="targetPoint"/>
                    </mxGeometry>
                </mxCell>
                <mxCell id="65" value="租用订单" style="rounded=1;whiteSpace=wrap;html=1;gradientColor=none;" vertex="1" parent="1">
                    <mxGeometry x="672.5" y="800" width="150" height="30" as="geometry"/>
                </mxCell>
                <mxCell id="72" value="name" style="rounded=1;whiteSpace=wrap;html=1;gradientColor=none;" vertex="1" parent="1">
                    <mxGeometry x="735" y="725" width="75" height="30" as="geometry"/>
                </mxCell>
                <mxCell id="151" style="edgeStyle=none;html=1;entryX=1;entryY=0.25;entryDx=0;entryDy=0;" edge="1" parent="1" source="74" target="150">
                    <mxGeometry relative="1" as="geometry"/>
                </mxCell>
                <mxCell id="74" value="出租中" style="rounded=1;whiteSpace=wrap;html=1;gradientColor=none;" vertex="1" parent="1">
                    <mxGeometry x="672.5" y="840" width="150" height="30" as="geometry"/>
                </mxCell>
                <mxCell id="180" style="edgeStyle=none;html=1;" edge="1" parent="1" source="75">
                    <mxGeometry relative="1" as="geometry">
                        <mxPoint x="1100" y="1170" as="targetPoint"/>
                    </mxGeometry>
                </mxCell>
                <mxCell id="75" value="消息" style="rounded=1;whiteSpace=wrap;html=1;gradientColor=none;" vertex="1" parent="1">
                    <mxGeometry x="672.5" y="880" width="147.5" height="30" as="geometry"/>
                </mxCell>
                <mxCell id="188" style="edgeStyle=none;html=1;entryX=1;entryY=0.75;entryDx=0;entryDy=0;" edge="1" parent="1" source="76" target="52">
                    <mxGeometry relative="1" as="geometry"/>
                </mxCell>
                <mxCell id="76" value="退出登录" style="rounded=1;whiteSpace=wrap;html=1;gradientColor=none;" vertex="1" parent="1">
                    <mxGeometry x="672.5" y="920" width="147.5" height="30" as="geometry"/>
                </mxCell>
                <mxCell id="77" value="" style="rounded=0;whiteSpace=wrap;html=1;gradientColor=none;" vertex="1" parent="1">
                    <mxGeometry x="1220" y="112.5" width="210" height="455" as="geometry"/>
                </mxCell>
                <mxCell id="78" value="" style="rounded=1;whiteSpace=wrap;html=1;" vertex="1" parent="1">
                    <mxGeometry x="1230" y="127.5" width="20" height="30" as="geometry"/>
                </mxCell>
                <mxCell id="106" style="edgeStyle=none;html=1;" edge="1" parent="1" source="79">
                    <mxGeometry relative="1" as="geometry">
                        <mxPoint x="500" y="260" as="targetPoint"/>
                    </mxGeometry>
                </mxCell>
                <mxCell id="79" value="返回" style="text;html=1;strokeColor=none;fillColor=none;align=center;verticalAlign=middle;whiteSpace=wrap;rounded=0;" vertex="1" parent="1">
                    <mxGeometry x="1160" y="127.5" width="60" height="30" as="geometry"/>
                </mxCell>
                <mxCell id="80" value="title" style="text;html=1;strokeColor=none;fillColor=none;align=center;verticalAlign=middle;whiteSpace=wrap;rounded=0;" vertex="1" parent="1">
                    <mxGeometry x="1280" y="127.5" width="60" height="30" as="geometry"/>
                </mxCell>
                <mxCell id="81" value="主页" style="rounded=1;whiteSpace=wrap;html=1;" vertex="1" parent="1">
                    <mxGeometry x="1390" y="127.5" width="20" height="30" as="geometry"/>
                </mxCell>
                <mxCell id="82" value="图片展示" style="rounded=1;whiteSpace=wrap;html=1;gradientColor=none;" vertex="1" parent="1">
                    <mxGeometry x="1235" y="177.5" width="175" height="110" as="geometry"/>
                </mxCell>
                <mxCell id="85" value="弹出，选择日期，价格计算" style="rounded=1;whiteSpace=wrap;html=1;gradientColor=none;" vertex="1" parent="1">
                    <mxGeometry x="1226.25" y="310" width="195" height="247.5" as="geometry"/>
                </mxCell>
                <mxCell id="86" value="" style="rounded=0;whiteSpace=wrap;html=1;gradientColor=none;" vertex="1" parent="1">
                    <mxGeometry x="1560" y="112.5" width="210" height="455" as="geometry"/>
                </mxCell>
                <mxCell id="87" value="" style="rounded=1;whiteSpace=wrap;html=1;" vertex="1" parent="1">
                    <mxGeometry x="1570" y="127.5" width="20" height="30" as="geometry"/>
                </mxCell>
                <mxCell id="88" value="返回" style="text;html=1;strokeColor=none;fillColor=none;align=center;verticalAlign=middle;whiteSpace=wrap;rounded=0;" vertex="1" parent="1">
                    <mxGeometry x="1500" y="127.5" width="60" height="30" as="geometry"/>
                </mxCell>
                <mxCell id="89" value="title" style="text;html=1;strokeColor=none;fillColor=none;align=center;verticalAlign=middle;whiteSpace=wrap;rounded=0;" vertex="1" parent="1">
                    <mxGeometry x="1620" y="127.5" width="60" height="30" as="geometry"/>
                </mxCell>
                <mxCell id="90" value="主页" style="rounded=1;whiteSpace=wrap;html=1;" vertex="1" parent="1">
                    <mxGeometry x="1730" y="127.5" width="20" height="30" as="geometry"/>
                </mxCell>
                <mxCell id="91" value="物品栏" style="rounded=1;whiteSpace=wrap;html=1;gradientColor=none;" vertex="1" parent="1">
                    <mxGeometry x="1575" y="177.5" width="185" height="72.5" as="geometry"/>
                </mxCell>
                <mxCell id="95" value="点击物品栏 进入" style="text;html=1;align=center;verticalAlign=middle;resizable=0;points=[];autosize=1;strokeColor=none;fillColor=none;rounded=1;" vertex="1" parent="1">
                    <mxGeometry x="598" y="283" width="110" height="30" as="geometry"/>
                </mxCell>
                <mxCell id="98" value="点击 租用" style="text;html=1;align=center;verticalAlign=middle;resizable=0;points=[];autosize=1;strokeColor=none;fillColor=none;" vertex="1" parent="1">
                    <mxGeometry x="1120" y="497.5" width="70" height="30" as="geometry"/>
                </mxCell>
                <mxCell id="104" style="edgeStyle=none;html=1;entryX=-0.024;entryY=0.706;entryDx=0;entryDy=0;entryPerimeter=0;" edge="1" parent="1" source="99" target="86">
                    <mxGeometry relative="1" as="geometry"/>
                </mxCell>
                <mxCell id="99" value="租用" style="rounded=1;whiteSpace=wrap;html=1;gradientColor=none;" vertex="1" parent="1">
                    <mxGeometry x="1250" y="507.5" width="153.75" height="40" as="geometry"/>
                </mxCell>
                <mxCell id="101" value="租用日期&lt;br&gt;价格计算" style="rounded=1;whiteSpace=wrap;html=1;gradientColor=none;" vertex="1" parent="1">
                    <mxGeometry x="1575" y="268" width="180" height="60" as="geometry"/>
                </mxCell>
                <mxCell id="102" value="交易方式&lt;br&gt;用户联系信息" style="rounded=1;whiteSpace=wrap;html=1;gradientColor=none;" vertex="1" parent="1">
                    <mxGeometry x="1575" y="345" width="185" height="165" as="geometry"/>
                </mxCell>
                <mxCell id="107" style="edgeStyle=none;html=1;" edge="1" parent="1" source="103">
                    <mxGeometry relative="1" as="geometry">
                        <mxPoint x="1900" y="430" as="targetPoint"/>
                    </mxGeometry>
                </mxCell>
                <mxCell id="103" value="确认" style="rounded=1;whiteSpace=wrap;html=1;gradientColor=none;" vertex="1" parent="1">
                    <mxGeometry x="1576.25" y="517.5" width="183.75" height="42.5" as="geometry"/>
                </mxCell>
                <mxCell id="105" value="点击租用" style="text;html=1;align=center;verticalAlign=middle;resizable=0;points=[];autosize=1;strokeColor=none;fillColor=none;" vertex="1" parent="1">
                    <mxGeometry x="1435" y="435" width="70" height="30" as="geometry"/>
                </mxCell>
                <mxCell id="108" value="弹出成功信息" style="text;html=1;align=center;verticalAlign=middle;resizable=0;points=[];autosize=1;strokeColor=none;fillColor=none;" vertex="1" parent="1">
                    <mxGeometry x="1905" y="400" width="100" height="30" as="geometry"/>
                </mxCell>
                <mxCell id="109" value="留言" style="rounded=1;whiteSpace=wrap;html=1;gradientColor=none;" vertex="1" parent="1">
                    <mxGeometry x="1050" y="527.5" width="40" height="32.5" as="geometry"/>
                </mxCell>
                <mxCell id="111" value="" style="rounded=0;whiteSpace=wrap;html=1;gradientColor=none;" vertex="1" parent="1">
                    <mxGeometry x="1000" y="660" width="220" height="370" as="geometry"/>
                </mxCell>
                <mxCell id="118" value="物品 1： 状态(未开始" style="rounded=1;whiteSpace=wrap;html=1;gradientColor=none;" vertex="1" parent="1">
                    <mxGeometry x="1025" y="710" width="170" height="60" as="geometry"/>
                </mxCell>
                <mxCell id="119" value="" style="rounded=1;whiteSpace=wrap;html=1;" vertex="1" parent="1">
                    <mxGeometry x="1010" y="670" width="20" height="30" as="geometry"/>
                </mxCell>
                <mxCell id="121" value="返回上一页" style="text;html=1;strokeColor=none;fillColor=none;align=center;verticalAlign=middle;whiteSpace=wrap;rounded=0;" vertex="1" parent="1">
                    <mxGeometry x="910" y="665" width="80" height="40" as="geometry"/>
                </mxCell>
                <mxCell id="122" value="物品 2: 开始" style="rounded=1;whiteSpace=wrap;html=1;gradientColor=none;" vertex="1" parent="1">
                    <mxGeometry x="1025" y="785" width="170" height="60" as="geometry"/>
                </mxCell>
                <mxCell id="123" value="物品 3: 结束" style="rounded=1;whiteSpace=wrap;html=1;gradientColor=none;" vertex="1" parent="1">
                    <mxGeometry x="1025" y="865" width="170" height="60" as="geometry"/>
                </mxCell>
                <mxCell id="124" value="物品 4: 结束" style="rounded=1;whiteSpace=wrap;html=1;gradientColor=none;" vertex="1" parent="1">
                    <mxGeometry x="1025" y="940" width="170" height="60" as="geometry"/>
                </mxCell>
                <mxCell id="140" style="edgeStyle=none;html=1;entryX=0.5;entryY=0;entryDx=0;entryDy=0;" edge="1" parent="1" source="134" target="135">
                    <mxGeometry relative="1" as="geometry"/>
                </mxCell>
                <mxCell id="141" value="提货" style="edgeLabel;html=1;align=center;verticalAlign=middle;resizable=0;points=[];" vertex="1" connectable="0" parent="140">
                    <mxGeometry x="-0.5355" y="4" relative="1" as="geometry">
                        <mxPoint x="17" y="4" as="offset"/>
                    </mxGeometry>
                </mxCell>
                <mxCell id="142" style="edgeStyle=none;html=1;" edge="1" parent="1" source="134" target="136">
                    <mxGeometry relative="1" as="geometry"/>
                </mxCell>
                <mxCell id="134" value="未开始" style="rounded=1;whiteSpace=wrap;html=1;gradientColor=none;" vertex="1" parent="1">
                    <mxGeometry x="1460" y="740" width="60" height="60" as="geometry"/>
                </mxCell>
                <mxCell id="144" style="edgeStyle=none;html=1;entryX=1;entryY=0.5;entryDx=0;entryDy=0;" edge="1" parent="1" source="135" target="136">
                    <mxGeometry relative="1" as="geometry"/>
                </mxCell>
                <mxCell id="145" value="归还|其他" style="edgeLabel;html=1;align=center;verticalAlign=middle;resizable=0;points=[];" vertex="1" connectable="0" parent="144">
                    <mxGeometry x="-0.2781" y="1" relative="1" as="geometry">
                        <mxPoint as="offset"/>
                    </mxGeometry>
                </mxCell>
                <mxCell id="135" value="开始" style="rounded=1;whiteSpace=wrap;html=1;gradientColor=none;" vertex="1" parent="1">
                    <mxGeometry x="1576.25" y="840" width="70" height="70" as="geometry"/>
                </mxCell>
                <mxCell id="136" value="结束并双向评价" style="rounded=1;whiteSpace=wrap;html=1;gradientColor=none;" vertex="1" parent="1">
                    <mxGeometry x="1455" y="925" width="70" height="70" as="geometry"/>
                </mxCell>
                <mxCell id="138" style="edgeStyle=none;html=1;entryX=0;entryY=0.5;entryDx=0;entryDy=0;" edge="1" parent="1" source="137" target="134">
                    <mxGeometry relative="1" as="geometry"/>
                </mxCell>
                <mxCell id="137" value="None" style="rounded=1;whiteSpace=wrap;html=1;gradientColor=none;" vertex="1" parent="1">
                    <mxGeometry x="1300" y="840" width="61.88" height="40" as="geometry"/>
                </mxCell>
                <mxCell id="139" value="下定" style="text;html=1;align=center;verticalAlign=middle;resizable=0;points=[];autosize=1;strokeColor=none;fillColor=none;" vertex="1" parent="1">
                    <mxGeometry x="1361.88" y="790" width="50" height="30" as="geometry"/>
                </mxCell>
                <mxCell id="143" value="取消" style="text;html=1;align=center;verticalAlign=middle;resizable=0;points=[];autosize=1;strokeColor=none;fillColor=none;" vertex="1" parent="1">
                    <mxGeometry x="1445" y="840" width="50" height="30" as="geometry"/>
                </mxCell>
                <mxCell id="148" value="历史区" style="rounded=1;whiteSpace=wrap;html=1;gradientColor=none;" vertex="1" parent="1">
                    <mxGeometry x="907.82" y="390" width="173.43" height="50" as="geometry"/>
                </mxCell>
                <mxCell id="150" value="" style="rounded=0;whiteSpace=wrap;html=1;gradientColor=none;" vertex="1" parent="1">
                    <mxGeometry x="307.5" y="1100" width="200" height="360" as="geometry"/>
                </mxCell>
                <mxCell id="169" style="edgeStyle=none;html=1;" edge="1" parent="1" source="152">
                    <mxGeometry relative="1" as="geometry">
                        <mxPoint x="670" y="1190" as="targetPoint"/>
                    </mxGeometry>
                </mxCell>
                <mxCell id="152" value="新增" style="rounded=1;whiteSpace=wrap;html=1;gradientColor=none;" vertex="1" parent="1">
                    <mxGeometry x="350" y="1120" width="150" height="30" as="geometry"/>
                </mxCell>
                <mxCell id="192" style="edgeStyle=none;html=1;entryX=-0.03;entryY=0.877;entryDx=0;entryDy=0;entryPerimeter=0;" edge="1" parent="1" source="154" target="61">
                    <mxGeometry relative="1" as="geometry"/>
                </mxCell>
                <mxCell id="154" value="" style="rounded=1;whiteSpace=wrap;html=1;" vertex="1" parent="1">
                    <mxGeometry x="320" y="1120" width="20" height="30" as="geometry"/>
                </mxCell>
                <mxCell id="155" value="物品 1" style="rounded=1;whiteSpace=wrap;html=1;gradientColor=none;" vertex="1" parent="1">
                    <mxGeometry x="320" y="1170" width="140" height="60" as="geometry"/>
                </mxCell>
                <mxCell id="156" value="状态" style="rounded=1;whiteSpace=wrap;html=1;" vertex="1" parent="1">
                    <mxGeometry x="414" y="1175" width="40" height="20" as="geometry"/>
                </mxCell>
                <mxCell id="170" style="edgeStyle=none;html=1;" edge="1" parent="1" source="158">
                    <mxGeometry relative="1" as="geometry">
                        <mxPoint x="670" y="1185" as="targetPoint"/>
                    </mxGeometry>
                </mxCell>
                <mxCell id="158" value="编辑" style="rounded=1;whiteSpace=wrap;html=1;" vertex="1" parent="1">
                    <mxGeometry x="470" y="1170" width="30" height="30" as="geometry"/>
                </mxCell>
                <mxCell id="159" value="删除" style="rounded=1;whiteSpace=wrap;html=1;" vertex="1" parent="1">
                    <mxGeometry x="470" y="1200" width="30" height="30" as="geometry"/>
                </mxCell>
                <mxCell id="161" value="物品 2" style="rounded=1;whiteSpace=wrap;html=1;gradientColor=none;" vertex="1" parent="1">
                    <mxGeometry x="317.5" y="1240" width="140" height="60" as="geometry"/>
                </mxCell>
                <mxCell id="162" value="状态" style="rounded=1;whiteSpace=wrap;html=1;" vertex="1" parent="1">
                    <mxGeometry x="411.5" y="1245" width="40" height="20" as="geometry"/>
                </mxCell>
                <mxCell id="163" value="编辑" style="rounded=1;whiteSpace=wrap;html=1;" vertex="1" parent="1">
                    <mxGeometry x="467.5" y="1240" width="30" height="30" as="geometry"/>
                </mxCell>
                <mxCell id="164" value="删除" style="rounded=1;whiteSpace=wrap;html=1;" vertex="1" parent="1">
                    <mxGeometry x="467.5" y="1270" width="30" height="30" as="geometry"/>
                </mxCell>
                <mxCell id="165" value="物品 3" style="rounded=1;whiteSpace=wrap;html=1;gradientColor=none;" vertex="1" parent="1">
                    <mxGeometry x="320" y="1310" width="140" height="60" as="geometry"/>
                </mxCell>
                <mxCell id="166" value="状态" style="rounded=1;whiteSpace=wrap;html=1;" vertex="1" parent="1">
                    <mxGeometry x="414" y="1315" width="40" height="20" as="geometry"/>
                </mxCell>
                <mxCell id="167" value="编辑" style="rounded=1;whiteSpace=wrap;html=1;" vertex="1" parent="1">
                    <mxGeometry x="470" y="1310" width="30" height="30" as="geometry"/>
                </mxCell>
                <mxCell id="168" value="删除" style="rounded=1;whiteSpace=wrap;html=1;" vertex="1" parent="1">
                    <mxGeometry x="470" y="1340" width="30" height="30" as="geometry"/>
                </mxCell>
                <mxCell id="171" value="" style="rounded=0;whiteSpace=wrap;html=1;gradientColor=none;" vertex="1" parent="1">
                    <mxGeometry x="680" y="1100" width="200" height="370" as="geometry"/>
                </mxCell>
                <mxCell id="191" style="edgeStyle=none;html=1;entryX=1.013;entryY=0.028;entryDx=0;entryDy=0;entryPerimeter=0;" edge="1" parent="1" source="172" target="150">
                    <mxGeometry relative="1" as="geometry"/>
                </mxCell>
                <mxCell id="172" value="" style="rounded=1;whiteSpace=wrap;html=1;" vertex="1" parent="1">
                    <mxGeometry x="695" y="1120" width="25" height="20" as="geometry"/>
                </mxCell>
                <mxCell id="173" value="保存/发布" style="rounded=1;whiteSpace=wrap;html=1;gradientColor=none;" vertex="1" parent="1">
                    <mxGeometry x="686.25" y="1430" width="187.5" height="30" as="geometry"/>
                </mxCell>
                <mxCell id="175" value="添加图片区" style="rounded=1;whiteSpace=wrap;html=1;gradientColor=none;" vertex="1" parent="1">
                    <mxGeometry x="702.5" y="1160" width="157.5" height="70" as="geometry"/>
                </mxCell>
                <mxCell id="176" value="描述" style="rounded=1;whiteSpace=wrap;html=1;gradientColor=none;" vertex="1" parent="1">
                    <mxGeometry x="702.5" y="1240" width="157.5" height="60" as="geometry"/>
                </mxCell>
                <mxCell id="177" value="日期&amp;nbsp;" style="rounded=1;whiteSpace=wrap;html=1;gradientColor=none;" vertex="1" parent="1">
                    <mxGeometry x="705" y="1310" width="155" height="50" as="geometry"/>
                </mxCell>
                <mxCell id="178" value="地点" style="rounded=1;whiteSpace=wrap;html=1;gradientColor=none;" vertex="1" parent="1">
                    <mxGeometry x="705" y="1370" width="155" height="50" as="geometry"/>
                </mxCell>
                <mxCell id="181" value="" style="rounded=0;whiteSpace=wrap;html=1;gradientColor=none;" vertex="1" parent="1">
                    <mxGeometry x="1100" y="1100" width="200" height="370" as="geometry"/>
                </mxCell>
                <mxCell id="186" style="edgeStyle=none;html=1;" edge="1" parent="1" source="182">
                    <mxGeometry relative="1" as="geometry">
                        <mxPoint x="1460" y="1160" as="targetPoint"/>
                    </mxGeometry>
                </mxCell>
                <mxCell id="187" value="点击跳转到对应留言" style="edgeLabel;html=1;align=center;verticalAlign=middle;resizable=0;points=[];" vertex="1" connectable="0" parent="186">
                    <mxGeometry x="-0.3135" y="-4" relative="1" as="geometry">
                        <mxPoint x="38" y="-2" as="offset"/>
                    </mxGeometry>
                </mxCell>
                <mxCell id="182" value="消息1" style="rounded=1;whiteSpace=wrap;html=1;gradientColor=none;" vertex="1" parent="1">
                    <mxGeometry x="1122.5" y="1160" width="157.5" height="30" as="geometry"/>
                </mxCell>
                <mxCell id="190" style="edgeStyle=none;html=1;" edge="1" parent="1" source="183" target="61">
                    <mxGeometry relative="1" as="geometry"/>
                </mxCell>
                <mxCell id="183" value="" style="rounded=1;whiteSpace=wrap;html=1;" vertex="1" parent="1">
                    <mxGeometry x="1120" y="1120" width="25" height="20" as="geometry"/>
                </mxCell>
                <mxCell id="184" value="消息2" style="rounded=1;whiteSpace=wrap;html=1;gradientColor=none;" vertex="1" parent="1">
                    <mxGeometry x="1122.5" y="1200" width="157.5" height="30" as="geometry"/>
                </mxCell>
                <mxCell id="185" value="消息3" style="rounded=1;whiteSpace=wrap;html=1;gradientColor=none;" vertex="1" parent="1">
                    <mxGeometry x="1122.5" y="1245" width="157.5" height="30" as="geometry"/>
                </mxCell>
            </root>
        </mxGraphModel>
    </diagram>
</mxfile>